<svg width="29" height="22" viewBox="0 0 29 22" fill="none" xmlns="http://www.w3.org/2000/svg">
<path d="M6.5 3L6.59435 3.25497C7.56306 5.87288 9.62712 7.93694 12.245 8.90565L12.5 9L12.245 9.09435C9.62712 10.0631 7.56306 12.1271 6.59435 14.745L6.5 15L6.40565 14.745C5.43694 12.1271 3.37288 10.0631 0.754973 9.09435L0.5 9L0.754973 8.90565C3.37288 7.93694 5.43694 5.87288 6.40565 3.25497L6.5 3Z" fill="#FFB367"/>
<path d="M6.5 4.30273C7.4886 6.35503 9.14409 8.01123 11.1963 9C9.14436 9.98864 7.48864 11.6444 6.5 13.6963C5.51123 11.6441 3.85503 9.9886 1.80273 9C3.85529 8.01127 5.51128 6.35529 6.5 4.30273Z" stroke="white" stroke-opacity="0.05"/>
<mask id="path-3-outside-1_9330_40" maskUnits="userSpaceOnUse" x="9.93091" y="0.148865" width="19" height="22" fill="black">
<rect fill="white" x="9.93091" y="0.148865" width="19" height="22"/>
<path d="M20.8782 1.14886C20.8782 1.1557 20.8772 1.16254 20.8772 1.16937C24.7254 1.43906 27.7637 4.64423 27.7639 8.56097C27.7638 12.6545 24.4453 15.9729 20.3518 15.9731H17.4524C16.665 15.9731 16.0259 16.6115 16.0256 17.3989V20.851H11.053V17.3989C11.0533 13.8648 13.9183 10.9995 17.4524 10.9995H20.3518C21.6986 10.9993 22.7911 9.90773 22.7913 8.56097C22.7911 7.21427 21.6985 6.12168 20.3518 6.12152L15.9045 6.1225C13.1578 6.1225 10.9309 3.89559 10.9309 1.14886H20.8782Z"/>
</mask>
<path d="M20.8782 1.14886C20.8782 1.1557 20.8772 1.16254 20.8772 1.16937C24.7254 1.43906 27.7637 4.64423 27.7639 8.56097C27.7638 12.6545 24.4453 15.9729 20.3518 15.9731H17.4524C16.665 15.9731 16.0259 16.6115 16.0256 17.3989V20.851H11.053V17.3989C11.0533 13.8648 13.9183 10.9995 17.4524 10.9995H20.3518C21.6986 10.9993 22.7911 9.90773 22.7913 8.56097C22.7911 7.21427 21.6985 6.12168 20.3518 6.12152L15.9045 6.1225C13.1578 6.1225 10.9309 3.89559 10.9309 1.14886H20.8782Z" fill="#FAF9FF"/>
<path d="M20.8782 1.14886H21.8782V0.148865H20.8782V1.14886ZM20.8772 1.16937L19.8772 1.16534L19.8734 2.10148L20.8073 2.16693L20.8772 1.16937ZM27.7639 8.56097L28.7639 8.561V8.56093L27.7639 8.56097ZM20.3518 15.9731V16.9731H20.3518L20.3518 15.9731ZM16.0256 17.3989L15.0256 17.3985V17.3989H16.0256ZM16.0256 20.851V21.851H17.0256V20.851H16.0256ZM11.053 20.851H10.053V21.851H11.053V20.851ZM11.053 17.3989L10.053 17.3988V17.3989H11.053ZM20.3518 10.9995V11.9995H20.3519L20.3518 10.9995ZM22.7913 8.56097L23.7913 8.56106V8.56084L22.7913 8.56097ZM20.3518 6.12152L20.3519 5.12152H20.3516L20.3518 6.12152ZM15.9045 6.1225V7.1225H15.9048L15.9045 6.1225ZM10.9309 1.14886V0.148865H9.93091V1.14886H10.9309ZM20.8782 1.14886H19.8782C19.8782 1.12791 19.8789 1.11128 19.8794 1.10177C19.8796 1.09689 19.8799 1.0931 19.88 1.09106C19.8801 1.08923 19.8802 1.08787 19.8802 1.08887C19.8801 1.08915 19.8799 1.09206 19.8797 1.09517C19.8795 1.09856 19.8792 1.10375 19.8788 1.10999C19.8782 1.12222 19.8773 1.14164 19.8772 1.16534L20.8772 1.16937L21.8772 1.17341C21.8771 1.19369 21.8764 1.2097 21.8759 1.21851C21.8756 1.22304 21.8754 1.22651 21.8753 1.2282C21.8752 1.2296 21.8751 1.2308 21.8752 1.22937C21.8753 1.22866 21.8755 1.22559 21.8757 1.22205C21.876 1.21831 21.8763 1.21281 21.8767 1.20622C21.8773 1.19329 21.8782 1.17324 21.8782 1.14886H20.8782ZM20.8772 1.16937L20.8073 2.16693C24.1357 2.40019 26.7638 5.1735 26.7639 8.56102L27.7639 8.56097L28.7639 8.56093C28.7637 4.11497 25.3151 0.477932 20.9471 0.171819L20.8772 1.16937ZM27.7639 8.56097L26.7639 8.56095C26.7638 12.1022 23.893 14.9729 20.3518 14.9731L20.3518 15.9731L20.3518 16.9731C24.9976 16.9729 28.7638 13.2068 28.7639 8.561L27.7639 8.56097ZM20.3518 15.9731V14.9731H17.4524V15.9731V16.9731H20.3518V15.9731ZM17.4524 15.9731V14.9731C16.1132 14.9731 15.0261 16.0586 15.0256 17.3985L16.0256 17.3989L17.0256 17.3992C17.0257 17.1644 17.2167 16.9731 17.4524 16.9731V15.9731ZM16.0256 17.3989H15.0256V20.851H16.0256H17.0256V17.3989H16.0256ZM16.0256 20.851V19.851H11.053V20.851V21.851H16.0256V20.851ZM11.053 20.851H12.053V17.3989H11.053H10.053V20.851H11.053ZM11.053 17.3989L12.053 17.3989C12.0532 14.417 14.4706 11.9995 17.4524 11.9995V10.9995V9.99945C13.3659 9.99945 10.0533 13.3126 10.053 17.3988L11.053 17.3989ZM17.4524 10.9995V11.9995H20.3518V10.9995V9.99945H17.4524V10.9995ZM20.3518 10.9995L20.3519 11.9995C22.2503 11.9992 23.7911 10.4606 23.7913 8.56106L22.7913 8.56097L21.7913 8.56089C21.7912 9.35488 21.1468 9.99936 20.3517 9.99945L20.3518 10.9995ZM22.7913 8.56097L23.7913 8.56084C23.791 6.66198 22.2508 5.12174 20.3519 5.12152L20.3518 6.12152L20.3517 7.12152C21.1462 7.12161 21.7912 7.76657 21.7913 8.56111L22.7913 8.56097ZM20.3518 6.12152L20.3516 5.12152L15.9043 5.1225L15.9045 6.1225L15.9048 7.1225L20.352 7.12152L20.3518 6.12152ZM15.9045 6.1225V5.1225C13.7101 5.1225 11.9309 3.34331 11.9309 1.14886H10.9309H9.93091C9.93091 4.44788 12.6055 7.1225 15.9045 7.1225V6.1225ZM10.9309 1.14886V2.14886H20.8782V1.14886V0.148865H10.9309V1.14886Z" fill="#4E17D1" fill-opacity="0.6" mask="url(#path-3-outside-1_9330_40)"/>
</svg>
